<svg width="17" height="17" viewBox="0 0 17 17" fill="none" xmlns="http://www.w3.org/2000/svg">
<path d="M11.5457 8.90459C11.5457 7.38687 10.3315 6.17269 8.81377 6.17269C7.29605 6.17269 6.08187 7.38687 6.08187 8.90459C6.08187 10.4223 7.29605 11.6365 8.81377 11.6365C10.3315 11.6365 11.5457 10.4223 11.5457 8.90459ZM12.9622 8.90459C12.9622 11.2318 11.1409 13.053 8.81377 13.053C6.48659 13.053 4.66532 11.2318 4.66532 8.90459C4.66532 6.57741 6.48659 4.75614 8.81377 4.75614C11.1409 4.75614 12.9622 6.57741 12.9622 8.90459ZM14.0752 4.55378C14.0752 5.16087 13.6705 5.5656 13.0634 5.5656C12.4563 5.5656 12.0516 5.16087 12.0516 4.55378C12.0516 3.94669 12.4563 3.54196 13.0634 3.54196C13.6705 3.54196 14.0752 4.04787 14.0752 4.55378ZM8.81377 2.2266C7.59959 2.2266 5.07005 2.12542 4.05823 2.53015C3.34996 2.83369 2.74287 3.44078 2.54051 4.14905C2.13578 5.16087 2.23696 7.69041 2.23696 8.90459C2.23696 10.1188 2.13578 12.6483 2.54051 13.6601C2.74287 14.3684 3.34996 14.9755 4.05823 15.1779C5.07005 15.5826 7.70077 15.4814 8.81377 15.4814C9.92677 15.4814 12.5575 15.5826 13.5693 15.1779C14.2776 14.8743 14.7835 14.3684 15.087 13.6601C15.4918 12.5471 15.3906 10.0176 15.3906 8.90459C15.3906 7.79159 15.4918 5.16087 15.087 4.14905C14.8847 3.44078 14.2776 2.83369 13.5693 2.63133C12.5575 2.12542 10.028 2.2266 8.81377 2.2266ZM16.9083 8.90459V12.2436C16.9083 13.4578 16.5036 14.6719 15.5929 15.6838C14.6823 16.5944 13.4681 16.9991 12.1528 16.9991H5.47478C4.2606 16.9991 3.04642 16.5944 2.0346 15.6838C1.22515 14.7731 0.719238 13.5589 0.719238 12.2436V8.90459V5.5656C0.719238 4.25023 1.22515 3.03606 2.0346 2.12542C3.04642 1.31597 4.2606 0.810059 5.47478 0.810059H12.1528C13.3669 0.810059 14.5811 1.21479 15.5929 2.12542C16.4024 3.03606 16.9083 4.25023 16.9083 5.5656V8.90459Z" fill="url(#paint0_linear_14_22)"/>
<defs>
<linearGradient id="paint0_linear_14_22" x1="8.81377" y1="0.810059" x2="8.81377" y2="16.9991" gradientUnits="userSpaceOnUse">
<stop stop-color="#00D2FF"/>
<stop offset="1" stop-color="#059DBE"/>
</linearGradient>
</defs>
</svg>
